<svg width="14" height="14" viewBox="0 0 24 24" xml:space="preserve" xmlns="http://www.w3.org/2000/svg" enable-background="new 0 0 24 24"><path d="M15 9c0-1.654-1.346-3-3-3S9 7.346 9 9s1.346 3 3 3 3-1.346 3-3zm-4 0c0-.551.449-1 1-1s1 .449 1 1-.449 1-1 1-1-.449-1-1z" fill="#ffbe00" class="fill-000000"></path><path d="M15.534 16.263C17.226 14.485 19 11.923 19 9c0-3.86-3.14-7-7-7S5 5.14 5 9c0 2.924 1.774 5.484 3.466 7.263C6.438 16.585 4 17.322 4 19c0 2.916 7.181 3 8 3s8-.084 8-3c0-1.679-2.439-2.415-4.466-2.737zM12 4c2.757 0 5 2.243 5 5 0 3.112-2.747 5.888-4.382 7.264-.233.194-.442.361-.618.496a19.718 19.718 0 0 1-.618-.496C9.744 14.885 7 12.111 7 9c0-2.757 2.243-5 5-5zm0 16c-3.13 0-5.147-.583-5.825-.999.545-.33 1.98-.792 4.234-.949l.135.107a19.797 19.797 0 0 0 .433.335l.118.088c.081.06.144.105.198.143l.05.037.098.068a1 1 0 0 0 1.118 0 8.38 8.38 0 0 0 .1-.07l.04-.028.211-.154.102-.076a18.294 18.294 0 0 0 .426-.328l.154-.122c2.253.157 3.688.62 4.233.949-.678.416-2.695.999-5.825.999z" fill="#ffbe00" class="fill-000000"></path></svg>